<svg xmlns="http://www.w3.org/2000/svg" viewBox="0 0 3811.06 2543.33"><defs><style>.cls-1{fill:none;stroke:#000;stroke-miterlimit:10;}</style></defs><g id="Layer_1" data-name="Layer 1"><line class="cls-1" x1="0.09" y1="-0.04" y2="2543.37"/><line class="cls-1" x1="25.16" y1="-0.04" x2="25.07" y2="2543.37"/><line class="cls-1" x1="50.23" y1="-0.04" x2="50.14" y2="2543.37"/><line class="cls-1" x1="75.31" y1="-0.04" x2="75.22" y2="2543.37"/><line class="cls-1" x1="100.38" y1="-0.04" x2="100.29" y2="2543.37"/><line class="cls-1" x1="125.45" y1="-0.04" x2="125.36" y2="2543.37"/><line class="cls-1" x1="150.52" y1="-0.04" x2="150.43" y2="2543.37"/><line class="cls-1" x1="175.59" y1="-0.04" x2="175.51" y2="2543.37"/><line class="cls-1" x1="200.67" y1="-0.04" x2="200.58" y2="2543.37"/><line class="cls-1" x1="225.74" y1="-0.04" x2="225.65" y2="2543.37"/><line class="cls-1" x1="250.81" y1="-0.04" x2="250.72" y2="2543.37"/><line class="cls-1" x1="275.88" y1="-0.04" x2="275.79" y2="2543.37"/><line class="cls-1" x1="300.95" y1="-0.04" x2="300.87" y2="2543.37"/><line class="cls-1" x1="326.03" y1="-0.04" x2="325.94" y2="2543.37"/><line class="cls-1" x1="351.1" y1="-0.04" x2="351.01" y2="2543.37"/><line class="cls-1" x1="376.17" y1="-0.04" x2="376.08" y2="2543.37"/><line class="cls-1" x1="401.24" y1="-0.04" x2="401.15" y2="2543.37"/><line class="cls-1" x1="426.32" y1="-0.04" x2="426.23" y2="2543.37"/><line class="cls-1" x1="451.39" y1="-0.04" x2="451.3" y2="2543.37"/><line class="cls-1" x1="476.46" y1="-0.04" x2="476.37" y2="2543.37"/><line class="cls-1" x1="501.53" y1="-0.04" x2="501.44" y2="2543.37"/><line class="cls-1" x1="526.6" y1="-0.04" x2="526.52" y2="2543.37"/><line class="cls-1" x1="551.68" y1="-0.04" x2="551.59" y2="2543.37"/><line class="cls-1" x1="576.75" y1="-0.04" x2="576.66" y2="2543.37"/><line class="cls-1" x1="601.82" y1="-0.04" x2="601.73" y2="2543.37"/><line class="cls-1" x1="626.89" y1="-0.04" x2="626.8" y2="2543.37"/><line class="cls-1" x1="651.97" y1="-0.04" x2="651.88" y2="2543.37"/><line class="cls-1" x1="677.04" y1="-0.04" x2="676.95" y2="2543.37"/><line class="cls-1" x1="702.11" y1="-0.04" x2="702.02" y2="2543.37"/><line class="cls-1" x1="727.18" y1="-0.04" x2="727.09" y2="2543.37"/><line class="cls-1" x1="752.25" y1="-0.04" x2="752.17" y2="2543.37"/><line class="cls-1" x1="777.33" y1="-0.04" x2="777.24" y2="2543.37"/><line class="cls-1" x1="802.4" y1="-0.04" x2="802.31" y2="2543.37"/><line class="cls-1" x1="827.47" y1="-0.04" x2="827.38" y2="2543.37"/><line class="cls-1" x1="852.54" y1="-0.04" x2="852.45" y2="2543.37"/><line class="cls-1" x1="877.61" y1="-0.04" x2="877.53" y2="2543.37"/><line class="cls-1" x1="902.69" y1="-0.04" x2="902.6" y2="2543.37"/><line class="cls-1" x1="927.76" y1="-0.04" x2="927.67" y2="2543.37"/><line class="cls-1" x1="952.83" y1="-0.04" x2="952.74" y2="2543.37"/><line class="cls-1" x1="977.9" y1="-0.04" x2="977.82" y2="2543.37"/><line class="cls-1" x1="1002.98" y1="-0.04" x2="1002.89" y2="2543.37"/><line class="cls-1" x1="1028.05" y1="-0.04" x2="1027.96" y2="2543.37"/><line class="cls-1" x1="1053.12" y1="-0.04" x2="1053.03" y2="2543.37"/><line class="cls-1" x1="1078.19" y1="-0.04" x2="1078.1" y2="2543.37"/><line class="cls-1" x1="1103.26" y1="-0.04" x2="1103.18" y2="2543.37"/><line class="cls-1" x1="1128.34" y1="-0.04" x2="1128.25" y2="2543.37"/><line class="cls-1" x1="1153.41" y1="-0.04" x2="1153.32" y2="2543.37"/><line class="cls-1" x1="1178.48" y1="-0.04" x2="1178.39" y2="2543.37"/><line class="cls-1" x1="1203.55" y1="-0.04" x2="1203.46" y2="2543.37"/><line class="cls-1" x1="1228.63" y1="-0.04" x2="1228.54" y2="2543.37"/><line class="cls-1" x1="1253.7" y1="-0.04" x2="1253.61" y2="2543.37"/><line class="cls-1" x1="1278.77" y1="-0.04" x2="1278.68" y2="2543.37"/><line class="cls-1" x1="1303.84" y1="-0.04" x2="1303.75" y2="2543.37"/><line class="cls-1" x1="1328.91" y1="-0.04" x2="1328.83" y2="2543.37"/><line class="cls-1" x1="1353.99" y1="-0.04" x2="1353.9" y2="2543.37"/><line class="cls-1" x1="1379.06" y1="-0.04" x2="1378.97" y2="2543.37"/><line class="cls-1" x1="1404.13" y1="-0.04" x2="1404.04" y2="2543.37"/><line class="cls-1" x1="1429.2" y1="-0.04" x2="1429.11" y2="2543.37"/><line class="cls-1" x1="1454.28" y1="-0.04" x2="1454.19" y2="2543.37"/><line class="cls-1" x1="1479.35" y1="-0.04" x2="1479.26" y2="2543.37"/><line class="cls-1" x1="1504.42" y1="-0.04" x2="1504.33" y2="2543.37"/><line class="cls-1" x1="1529.49" y1="-0.04" x2="1529.4" y2="2543.37"/><line class="cls-1" x1="1554.56" y1="-0.04" x2="1554.48" y2="2543.37"/><line class="cls-1" x1="1579.64" y1="-0.04" x2="1579.55" y2="2543.37"/><line class="cls-1" x1="1604.71" y1="-0.04" x2="1604.62" y2="2543.37"/><line class="cls-1" x1="1629.78" y1="-0.04" x2="1629.69" y2="2543.37"/><line class="cls-1" x1="1654.85" y1="-0.04" x2="1654.76" y2="2543.37"/><line class="cls-1" x1="1679.92" y1="-0.04" x2="1679.84" y2="2543.37"/><line class="cls-1" x1="1705" y1="-0.04" x2="1704.91" y2="2543.37"/><line class="cls-1" x1="1730.07" y1="-0.04" x2="1729.98" y2="2543.37"/><line class="cls-1" x1="1755.14" y1="-0.04" x2="1755.05" y2="2543.37"/><line class="cls-1" x1="1780.21" y1="-0.04" x2="1780.12" y2="2543.37"/><line class="cls-1" x1="1805.29" y1="-0.04" x2="1805.2" y2="2543.37"/><line class="cls-1" x1="1830.36" y1="-0.04" x2="1830.27" y2="2543.37"/><line class="cls-1" x1="1855.43" y1="-0.04" x2="1855.34" y2="2543.37"/><line class="cls-1" x1="1880.5" y1="-0.04" x2="1880.41" y2="2543.37"/><line class="cls-1" x1="1905.57" y1="-0.04" x2="1905.49" y2="2543.37"/><line class="cls-1" x1="1930.65" y1="-0.04" x2="1930.56" y2="2543.37"/><line class="cls-1" x1="1955.72" y1="-0.04" x2="1955.63" y2="2543.37"/><line class="cls-1" x1="1980.79" y1="-0.04" x2="1980.7" y2="2543.37"/><line class="cls-1" x1="2005.86" y1="-0.04" x2="2005.77" y2="2543.37"/><line class="cls-1" x1="2030.94" y1="-0.04" x2="2030.85" y2="2543.37"/><line class="cls-1" x1="2056.01" y1="-0.04" x2="2055.92" y2="2543.37"/><line class="cls-1" x1="2081.08" y1="-0.04" x2="2080.99" y2="2543.37"/><line class="cls-1" x1="2106.15" y1="-0.04" x2="2106.06" y2="2543.37"/><line class="cls-1" x1="2131.22" y1="-0.04" x2="2131.14" y2="2543.37"/><line class="cls-1" x1="2156.3" y1="-0.04" x2="2156.21" y2="2543.37"/><line class="cls-1" x1="2181.37" y1="-0.04" x2="2181.28" y2="2543.37"/><line class="cls-1" x1="2206.44" y1="-0.04" x2="2206.35" y2="2543.37"/><line class="cls-1" x1="2231.51" y1="-0.04" x2="2231.42" y2="2543.37"/><line class="cls-1" x1="2256.58" y1="-0.04" x2="2256.5" y2="2543.37"/><line class="cls-1" x1="2281.66" y1="-0.04" x2="2281.57" y2="2543.37"/><line class="cls-1" x1="2306.73" y1="-0.04" x2="2306.64" y2="2543.37"/><line class="cls-1" x1="2331.8" y1="-0.04" x2="2331.71" y2="2543.37"/><line class="cls-1" x1="2356.87" y1="-0.04" x2="2356.78" y2="2543.37"/><line class="cls-1" x1="2381.95" y1="-0.04" x2="2381.86" y2="2543.37"/><line class="cls-1" x1="2407.02" y1="-0.04" x2="2406.93" y2="2543.37"/><line class="cls-1" x1="2432.09" y1="-0.04" x2="2432" y2="2543.37"/><line class="cls-1" x1="2457.16" y1="-0.04" x2="2457.07" y2="2543.37"/><line class="cls-1" x1="2482.23" y1="-0.04" x2="2482.15" y2="2543.37"/><line class="cls-1" x1="2507.31" y1="-0.04" x2="2507.22" y2="2543.37"/><line class="cls-1" x1="2532.38" y1="-0.04" x2="2532.29" y2="2543.37"/><line class="cls-1" x1="2557.45" y1="-0.04" x2="2557.36" y2="2543.37"/><line class="cls-1" x1="2582.52" y1="-0.04" x2="2582.43" y2="2543.37"/><line class="cls-1" x1="2607.6" y1="-0.04" x2="2607.51" y2="2543.37"/><line class="cls-1" x1="2632.67" y1="-0.04" x2="2632.58" y2="2543.37"/><line class="cls-1" x1="2657.74" y1="-0.04" x2="2657.65" y2="2543.37"/><line class="cls-1" x1="2682.81" y1="-0.04" x2="2682.72" y2="2543.37"/><line class="cls-1" x1="2707.88" y1="-0.04" x2="2707.8" y2="2543.37"/><line class="cls-1" x1="2732.96" y1="-0.04" x2="2732.87" y2="2543.37"/><line class="cls-1" x1="2758.03" y1="-0.04" x2="2757.94" y2="2543.37"/><line class="cls-1" x1="2783.1" y1="-0.04" x2="2783.01" y2="2543.37"/><line class="cls-1" x1="2808.17" y1="-0.04" x2="2808.08" y2="2543.37"/><line class="cls-1" x1="2833.24" y1="-0.04" x2="2833.16" y2="2543.37"/><line class="cls-1" x1="2858.32" y1="-0.04" x2="2858.23" y2="2543.37"/><line class="cls-1" x1="2883.39" y1="-0.04" x2="2883.3" y2="2543.37"/><line class="cls-1" x1="2908.46" y1="-0.04" x2="2908.37" y2="2543.37"/><line class="cls-1" x1="2933.53" y1="-0.04" x2="2933.45" y2="2543.37"/><line class="cls-1" x1="2958.61" y1="-0.04" x2="2958.52" y2="2543.37"/><line class="cls-1" x1="2983.68" y1="-0.04" x2="2983.59" y2="2543.37"/><line class="cls-1" x1="3008.75" y1="-0.04" x2="3008.66" y2="2543.37"/><line class="cls-1" x1="3033.82" y1="-0.04" x2="3033.73" y2="2543.37"/><line class="cls-1" x1="3058.89" y1="-0.04" x2="3058.81" y2="2543.37"/><line class="cls-1" x1="3083.97" y1="-0.04" x2="3083.88" y2="2543.37"/><line class="cls-1" x1="3109.04" y1="-0.04" x2="3108.95" y2="2543.37"/><line class="cls-1" x1="3134.11" y1="-0.04" x2="3134.02" y2="2543.37"/><line class="cls-1" x1="3159.18" y1="-0.04" x2="3159.09" y2="2543.37"/><line class="cls-1" x1="3184.26" y1="-0.04" x2="3184.17" y2="2543.37"/><line class="cls-1" x1="3209.33" y1="-0.04" x2="3209.24" y2="2543.37"/><line class="cls-1" x1="3234.4" y1="-0.04" x2="3234.31" y2="2543.37"/><line class="cls-1" x1="3259.47" y1="-0.04" x2="3259.38" y2="2543.37"/><line class="cls-1" x1="3284.54" y1="-0.04" x2="3284.46" y2="2543.37"/><line class="cls-1" x1="3309.62" y1="-0.04" x2="3309.53" y2="2543.37"/><line class="cls-1" x1="3334.69" y1="-0.04" x2="3334.6" y2="2543.37"/><line class="cls-1" x1="3359.76" y1="-0.04" x2="3359.67" y2="2543.37"/><line class="cls-1" x1="3384.83" y1="-0.04" x2="3384.74" y2="2543.37"/><line class="cls-1" x1="3409.91" y1="-0.04" x2="3409.82" y2="2543.37"/><line class="cls-1" x1="3434.98" y1="-0.04" x2="3434.89" y2="2543.37"/><line class="cls-1" x1="3460.05" y1="-0.04" x2="3459.96" y2="2543.37"/><line class="cls-1" x1="3485.12" y1="-0.04" x2="3485.03" y2="2543.37"/><line class="cls-1" x1="3510.19" y1="-0.04" x2="3510.11" y2="2543.37"/><line class="cls-1" x1="3535.27" y1="-0.04" x2="3535.18" y2="2543.37"/><line class="cls-1" x1="3560.34" y1="-0.04" x2="3560.25" y2="2543.37"/><line class="cls-1" x1="3585.41" y1="-0.04" x2="3585.32" y2="2543.37"/><line class="cls-1" x1="3610.48" y1="-0.04" x2="3610.39" y2="2543.37"/><line class="cls-1" x1="3635.55" y1="-0.04" x2="3635.47" y2="2543.37"/><line class="cls-1" x1="3660.63" y1="-0.04" x2="3660.54" y2="2543.37"/><line class="cls-1" x1="3685.7" y1="-0.04" x2="3685.61" y2="2543.37"/><line class="cls-1" x1="3710.77" y1="-0.04" x2="3710.68" y2="2543.37"/><line class="cls-1" x1="3735.84" y1="-0.04" x2="3735.75" y2="2543.37"/><line class="cls-1" x1="3760.92" y1="-0.04" x2="3760.83" y2="2543.37"/><line class="cls-1" x1="3785.99" y1="-0.04" x2="3785.9" y2="2543.37"/><line class="cls-1" x1="3811.06" y1="-0.04" x2="3810.97" y2="2543.37"/><line class="cls-1" x1="-0.02" x2="3811.08" y2="0.03"/><line class="cls-1" x1="-0.02" y1="24.93" x2="3811.08" y2="24.97"/><line class="cls-1" x1="-0.02" y1="49.87" x2="3811.08" y2="49.9"/><line class="cls-1" x1="-0.02" y1="74.8" x2="3811.08" y2="74.84"/><line class="cls-1" x1="-0.02" y1="99.74" x2="3811.08" y2="99.77"/><line class="cls-1" x1="-0.02" y1="124.67" x2="3811.08" y2="124.7"/><line class="cls-1" x1="-0.02" y1="149.61" x2="3811.08" y2="149.64"/><line class="cls-1" x1="-0.02" y1="174.54" x2="3811.08" y2="174.57"/><line class="cls-1" x1="-0.02" y1="199.47" x2="3811.08" y2="199.51"/><line class="cls-1" x1="-0.02" y1="224.41" x2="3811.08" y2="224.44"/><line class="cls-1" x1="-0.02" y1="249.34" x2="3811.08" y2="249.38"/><line class="cls-1" x1="-0.02" y1="274.28" x2="3811.08" y2="274.31"/><line class="cls-1" x1="-0.02" y1="299.21" x2="3811.08" y2="299.24"/><line class="cls-1" x1="-0.02" y1="324.15" x2="3811.08" y2="324.18"/><line class="cls-1" x1="-0.02" y1="349.08" x2="3811.08" y2="349.11"/><line class="cls-1" x1="-0.02" y1="374.01" x2="3811.08" y2="374.05"/><line class="cls-1" x1="-0.02" y1="398.95" x2="3811.08" y2="398.98"/><line class="cls-1" x1="-0.02" y1="423.88" x2="3811.08" y2="423.92"/><line class="cls-1" x1="-0.02" y1="448.82" x2="3811.08" y2="448.85"/><line class="cls-1" x1="-0.02" y1="473.75" x2="3811.08" y2="473.78"/><line class="cls-1" x1="-0.02" y1="498.69" x2="3811.08" y2="498.72"/><line class="cls-1" x1="-0.02" y1="523.62" x2="3811.08" y2="523.65"/><line class="cls-1" x1="-0.02" y1="548.55" x2="3811.08" y2="548.59"/><line class="cls-1" x1="-0.02" y1="573.49" x2="3811.08" y2="573.52"/><line class="cls-1" x1="-0.02" y1="598.42" x2="3811.08" y2="598.46"/><line class="cls-1" x1="-0.02" y1="623.36" x2="3811.08" y2="623.39"/><line class="cls-1" x1="-0.02" y1="648.29" x2="3811.08" y2="648.32"/><line class="cls-1" x1="-0.02" y1="673.23" x2="3811.08" y2="673.26"/><line class="cls-1" x1="-0.02" y1="698.16" x2="3811.08" y2="698.19"/><line class="cls-1" x1="-0.02" y1="723.09" x2="3811.08" y2="723.13"/><line class="cls-1" x1="-0.02" y1="748.03" x2="3811.08" y2="748.06"/><line class="cls-1" x1="-0.02" y1="772.96" x2="3811.08" y2="773"/><line class="cls-1" x1="-0.02" y1="797.9" x2="3811.08" y2="797.93"/><line class="cls-1" x1="-0.02" y1="822.83" x2="3811.08" y2="822.86"/><line class="cls-1" x1="-0.02" y1="847.77" x2="3811.08" y2="847.8"/><line class="cls-1" x1="-0.02" y1="872.7" x2="3811.08" y2="872.73"/><line class="cls-1" x1="-0.02" y1="897.63" x2="3811.08" y2="897.67"/><line class="cls-1" x1="-0.02" y1="922.57" x2="3811.08" y2="922.6"/><line class="cls-1" x1="-0.02" y1="947.5" x2="3811.08" y2="947.54"/><line class="cls-1" x1="-0.02" y1="972.44" x2="3811.08" y2="972.47"/><line class="cls-1" x1="-0.02" y1="997.37" x2="3811.08" y2="997.4"/><line class="cls-1" x1="-0.02" y1="1022.31" x2="3811.08" y2="1022.34"/><line class="cls-1" x1="-0.02" y1="1047.24" x2="3811.08" y2="1047.27"/><line class="cls-1" x1="-0.02" y1="1072.17" x2="3811.08" y2="1072.21"/><line class="cls-1" x1="-0.02" y1="1097.11" x2="3811.08" y2="1097.14"/><line class="cls-1" x1="-0.02" y1="1122.04" x2="3811.08" y2="1122.08"/><line class="cls-1" x1="-0.02" y1="1146.98" x2="3811.08" y2="1147.01"/><line class="cls-1" x1="-0.02" y1="1171.91" x2="3811.08" y2="1171.94"/><line class="cls-1" x1="-0.02" y1="1196.85" x2="3811.08" y2="1196.88"/><line class="cls-1" x1="-0.02" y1="1221.78" x2="3811.08" y2="1221.81"/><line class="cls-1" x1="-0.02" y1="1246.71" x2="3811.08" y2="1246.75"/><line class="cls-1" x1="-0.02" y1="1271.65" x2="3811.08" y2="1271.68"/><line class="cls-1" x1="-0.02" y1="1296.58" x2="3811.08" y2="1296.62"/><line class="cls-1" x1="-0.02" y1="1321.52" x2="3811.08" y2="1321.55"/><line class="cls-1" x1="-0.02" y1="1346.45" x2="3811.08" y2="1346.48"/><line class="cls-1" x1="-0.02" y1="1371.39" x2="3811.08" y2="1371.42"/><line class="cls-1" x1="-0.02" y1="1396.32" x2="3811.08" y2="1396.35"/><line class="cls-1" x1="-0.02" y1="1421.25" x2="3811.08" y2="1421.29"/><line class="cls-1" x1="-0.02" y1="1446.19" x2="3811.08" y2="1446.22"/><line class="cls-1" x1="-0.02" y1="1471.12" x2="3811.08" y2="1471.16"/><line class="cls-1" x1="-0.02" y1="1496.06" x2="3811.08" y2="1496.09"/><line class="cls-1" x1="-0.02" y1="1520.99" x2="3811.08" y2="1521.02"/><line class="cls-1" x1="-0.02" y1="1545.93" x2="3811.08" y2="1545.96"/><line class="cls-1" x1="-0.02" y1="1570.86" x2="3811.08" y2="1570.89"/><line class="cls-1" x1="-0.02" y1="1595.79" x2="3811.08" y2="1595.83"/><line class="cls-1" x1="-0.02" y1="1620.73" x2="3811.08" y2="1620.76"/><line class="cls-1" x1="-0.02" y1="1645.66" x2="3811.08" y2="1645.7"/><line class="cls-1" x1="-0.02" y1="1670.6" x2="3811.08" y2="1670.63"/><line class="cls-1" x1="-0.02" y1="1695.53" x2="3811.08" y2="1695.56"/><line class="cls-1" x1="-0.02" y1="1720.47" x2="3811.08" y2="1720.5"/><line class="cls-1" x1="-0.02" y1="1745.4" x2="3811.08" y2="1745.43"/><line class="cls-1" x1="-0.02" y1="1770.33" x2="3811.08" y2="1770.37"/><line class="cls-1" x1="-0.02" y1="1795.27" x2="3811.08" y2="1795.3"/><line class="cls-1" x1="-0.02" y1="1820.2" x2="3811.08" y2="1820.24"/><line class="cls-1" x1="-0.02" y1="1845.14" x2="3811.08" y2="1845.17"/><line class="cls-1" x1="-0.02" y1="1870.07" x2="3811.08" y2="1870.1"/><line class="cls-1" x1="-0.02" y1="1895.01" x2="3811.08" y2="1895.04"/><line class="cls-1" x1="-0.02" y1="1919.94" x2="3811.08" y2="1919.97"/><line class="cls-1" x1="-0.02" y1="1944.87" x2="3811.08" y2="1944.91"/><line class="cls-1" x1="-0.02" y1="1969.81" x2="3811.08" y2="1969.84"/><line class="cls-1" x1="-0.02" y1="1994.74" x2="3811.08" y2="1994.78"/><line class="cls-1" x1="-0.02" y1="2019.68" x2="3811.08" y2="2019.71"/><line class="cls-1" x1="-0.02" y1="2044.61" x2="3811.08" y2="2044.64"/><line class="cls-1" x1="-0.02" y1="2069.55" x2="3811.08" y2="2069.58"/><line class="cls-1" x1="-0.02" y1="2094.48" x2="3811.08" y2="2094.51"/><line class="cls-1" x1="-0.02" y1="2119.41" x2="3811.08" y2="2119.45"/><line class="cls-1" x1="-0.02" y1="2144.35" x2="3811.08" y2="2144.38"/><line class="cls-1" x1="-0.02" y1="2169.28" x2="3811.08" y2="2169.32"/><line class="cls-1" x1="-0.02" y1="2194.22" x2="3811.08" y2="2194.25"/><line class="cls-1" x1="-0.02" y1="2219.15" x2="3811.08" y2="2219.18"/><line class="cls-1" x1="-0.02" y1="2244.09" x2="3811.08" y2="2244.12"/><line class="cls-1" x1="-0.02" y1="2269.02" x2="3811.08" y2="2269.05"/><line class="cls-1" x1="-0.02" y1="2293.95" x2="3811.08" y2="2293.99"/><line class="cls-1" x1="-0.02" y1="2318.89" x2="3811.08" y2="2318.92"/><line class="cls-1" x1="-0.02" y1="2343.82" x2="3811.08" y2="2343.86"/><line class="cls-1" x1="-0.02" y1="2368.76" x2="3811.08" y2="2368.79"/><line class="cls-1" x1="-0.02" y1="2393.69" x2="3811.08" y2="2393.72"/><line class="cls-1" x1="-0.02" y1="2418.63" x2="3811.08" y2="2418.66"/><line class="cls-1" x1="-0.02" y1="2443.56" x2="3811.08" y2="2443.59"/><line class="cls-1" x1="-0.02" y1="2468.49" x2="3811.08" y2="2468.53"/><line class="cls-1" x1="-0.02" y1="2493.43" x2="3811.08" y2="2493.46"/><line class="cls-1" x1="-0.02" y1="2518.36" x2="3811.08" y2="2518.4"/><line class="cls-1" x1="-0.02" y1="2543.3" x2="3811.08" y2="2543.33"/></g></svg>