<svg xmlns="http://www.w3.org/2000/svg" viewBox="0 0 100 100"><defs><style>.cls-1{fill:#fff;}.cls-2{stroke:#000;stroke-miterlimit:10;}</style></defs><g id="Layer_2" data-name="Layer 2"><rect class="cls-1" width="100" height="100" rx="50"/><path class="cls-2" d="M79,43.25l-.13-.08a.18.18,0,0,0-.07-.05L78.63,43l-.07,0-.13-.08-.07,0-.13-.08-.07-.05a.39.39,0,0,0-.14-.08L78,42.59l-.14-.07-.06-.06-.14-.07-.06-.06-.14-.07-.06-.06-.14-.07-.07-.06L77,42,77,41.94l-.13-.07-.07-.06a1,1,0,0,0-1.46.26c-.3.45-.62.88-1,1.3A31.72,31.72,0,0,1,71,46.88a3,3,0,0,1-.84.51,2.43,2.43,0,0,1,0-1.66.26.26,0,0,0-.24-.25.24.24,0,0,0-.2-.13.22.22,0,0,0-.2-.13,4709559081246.21,4709559081246.21,0,0,1-.4-.26,4.35,4.35,0,0,1-.41-.27.26.26,0,0,0-.2-.13.26.26,0,0,0-.2-.13,9419118162461.28,9419118162461.28,0,0,0-.4-.26.24.24,0,0,0-.22-.13l-2,0a1.67,1.67,0,0,1-1,1.23,8,8,0,0,0-1.57.39,4.37,4.37,0,0,0-.78.47h0a1.37,1.37,0,0,0-.2-.13l-.2-.14-.2-.13c-.77-.56-1.72-.57-3.08.11a8.6,8.6,0,0,0-2.26,1.78c.05-1-.18-2.15-.88-2.49a1.13,1.13,0,0,0-.2-.13.92.92,0,0,0-.21-.13.53.53,0,0,0-.2-.13.9.9,0,0,0-.2-.14,10596507932769.19,10596507932769.19,0,0,0-.6-.39,21193015865533.84,21193015865533.84,0,0,0-.6-.39,1.12,1.12,0,0,0-1.24-.09c-.69.43-.77,1.34-1,2-.4,1.28-1.13,2.53-2.62,2.39a10.16,10.16,0,0,1-3.47-1.16,17.6,17.6,0,0,0-6.32-1.49c2.72-1.69,5.51-3.29,8.13-5.16,1.13-.85,2.25-1.73,3.3-2.68A1.57,1.57,0,0,0,51,36.24,1.51,1.51,0,0,0,50.19,35a28257354487379.85,28257354487379.85,0,0,1-.4-.26,1.13,1.13,0,0,0-.2-.13,1.53,1.53,0,0,0-.21-.14l-.2-.13-.2-.13a16954412692423.38,16954412692423.38,0,0,1-.6-.39,1.37,1.37,0,0,0-.2-.13,1.51,1.51,0,0,0-1-.31c-1.46.06-2.91.1-4.37.12-2.83,0-5.93.07-8.74.18-1.77.06-3.63.11-5.5.13.13-1.49.22-3,.21-4.48a1.24,1.24,0,0,0-.66-1.21.92.92,0,0,0-.21-.13,18838236324918.4,18838236324918.4,0,0,0-.4-.26.86.86,0,0,0-.2-.13l-.2-.14a1.37,1.37,0,0,0-.2-.13,18838236324917.15,18838236324917.15,0,0,1-.4-.26l-.2-.13-.2-.13a1.24,1.24,0,0,0-2,.88c-.14,2-.26,4.07-.36,6.1-.89,0-1.76,0-2.61-.07-2.87-.11-5.72-.35-8.6-.42a1.25,1.25,0,0,0-.66,2.35,1.37,1.37,0,0,0,.2.13,1.37,1.37,0,0,0,.2.13,1.37,1.37,0,0,0,.2.13,1.07,1.07,0,0,0,.21.13,1,1,0,0,0,.2.13,1,1,0,0,0,.2.13,1,1,0,0,0,.2.13,1.37,1.37,0,0,0,.2.13,1.37,1.37,0,0,0,.2.13.86.86,0,0,0,.2.13,1.29,1.29,0,0,0,.65.28c3,.33,6,.56,9,.7-.31,7.35-.41,14.72-.29,22,0,3.59.12,7.18.16,10.77a1.25,1.25,0,0,0,.68,1.1,1.37,1.37,0,0,0,.2.13,5651470897476.14,5651470897476.14,0,0,1,.4.26,1.37,1.37,0,0,0,.2.13.86.86,0,0,0,.2.13,4709559081228.77,4709559081228.77,0,0,0,.4.26.92.92,0,0,0,.21.13.86.86,0,0,0,.2.13l.2.14a1.2,1.2,0,0,0,.89.26A1.24,1.24,0,0,0,28.09,72,210.37,210.37,0,0,1,28,40c0-.65.1-1.3.15-1.95,4.24,0,8.63-.15,12.93-.2-2.74,1.89-5.63,3.56-8.36,5.51-1.53,1.11-3,2.29-4.42,3.54A1.26,1.26,0,0,0,28,48.14a1.19,1.19,0,0,0,.63.77,28257354487380.11,28257354487380.11,0,0,1,.4.26,9419118162460,9419118162460,0,0,1,.4.26l.2.14a14128677243689,14128677243689,0,0,0,.4.26l.2.13.2.13.21.13a1.25,1.25,0,0,0,1.11.23,32.81,32.81,0,0,1,7.59-1.31,16.42,16.42,0,0,1,7.29,1.21c.58.26,1.24.56,1.94.8a6,6,0,0,0,4,.26,1.21,1.21,0,0,0,1.24,0l.33-.2h0l.09-.07a2.2,2.2,0,0,0,.25-.17,2.68,2.68,0,0,1,2.35-.25l.21.09s0,0,.05,0l.09,0a.48.48,0,0,1,.11.09l.1,0,.11.09.09,0,.11.09.6.26a.6.6,0,0,0,.76-.38,3.67,3.67,0,0,1,1.11-1.55,5.89,5.89,0,0,1,1.45-1l0,0v0l.21.1v0l.21.1v0l.21.11v0l.21.11v0l.21.11v0l.21.1v0l.21.1v0l1.71.83a.47.47,0,0,0,.24,0,.43.43,0,0,0,.38-.48,1.59,1.59,0,0,1,.1-.77h0l0,0a1.25,1.25,0,0,1,.2-.36c.45-.6,1-.36,1.72-.5a3.22,3.22,0,0,0,.61-.16,3.08,3.08,0,0,0,.41.3,8477206346204.74,8477206346204.74,0,0,1,.6.39,1.37,1.37,0,0,0,.2.13l.2.13.2.13.2.13.2.13.21.13.2.14a2.57,2.57,0,0,0,1.78.51,4.94,4.94,0,0,0,1.9-.74,46.82,46.82,0,0,0,0,6c.18,2.11.33,4.2.33,6.33.07,9.45-.49,19.23-1.08,28.69l0,.8a.51.51,0,0,1-.14.39c-.2.22-.72.41-.51.78s.7.54.78.84a.34.34,0,0,1-.06.39,1.61,1.61,0,0,0,.42,2.52,1.37,1.37,0,0,0,.2.13l.13.09a1.52,1.52,0,0,0,.34.22l.13.08a.92.92,0,0,0,.21.13L75,97l.12.08a1.41,1.41,0,0,0,.34.22l.14.09a1.37,1.37,0,0,0,.2.13,1.55,1.55,0,0,0,1.52.2,1.6,1.6,0,0,0,.91-2.07l-.16-.4c-.17-.45.28-.81.45-1.18s-.23-.79-.14-1.21l0-.8c.25-7.3.51-15.14.55-22.43,0-3.77.06-7.55-.28-11.32a42.88,42.88,0,0,1,.73-14A1.05,1.05,0,0,0,79,43.25Z"/></g></svg>